# xmcd
# 
# Track frame offsets:
#     150
#     42664
#     78868
#     100964
#     126220
#     191720
#     254318
# 
# Disc length: 3582
# 
# Revision: 0
# Processed by: cddbd v1.5.2PL0 Copyright (c) Steve Scherf et al.
# Submitted via: fre:ac v1.0.17
# 
DISCID=5c0dfc07
DTITLE=Stewart Lee - What Would Judas Do? (03 Feb 07 Matinee)
DYEAR=2009
DGENRE=Comedy
TTITLE0=Intro
TTITLE1=Sunday
TTITLE2=Monday
TTITLE3=Tuesday
TTITLE4=Wednesday
TTITLE5=Thursday
TTITLE6=Good Friday
EXTD=
EXTT0=
EXTT1=
EXTT2=
EXTT3=
EXTT4=
EXTT5=
EXTT6=
PLAYORDER=
